nColumns=19
nRows=50
DataType=double
version=3
OpenSimVersion=4.1
endheader
time	ground_force_calcn_r_vx	ground_force_calcn_r_vy	ground_force_calcn_r_vz	ground_force_calcn_r_px	ground_force_calcn_r_py	ground_force_calcn_r_pz	ground_force_calcn_r_mx	ground_force_calcn_r_my	ground_force_calcn_r_mz	ground_force_calcn_l_vx	ground_force_calcn_l_vy	ground_force_calcn_l_vz	ground_force_calcn_l_px	ground_force_calcn_l_py	ground_force_calcn_l_pz	ground_force_calcn_l_mx	ground_force_calcn_l_my	ground_force_calcn_l_mz
0	3.78694	324.219	-39.1846	-0.270634	0	-0.423836	-0.00492077	-0.421292	0.0509166	-1.89254	328.44	41.0562	-0.240872	0	-0.842108	-0.00499453	0.866775	0.10835
0.01	3.90717	324.666	-39.1763	-0.270845	0	-0.424005	-0.00476614	-0.396041	0.047789	-1.96159	328.99	41.1402	-0.240785	0	-0.842156	-0.00515704	0.864919	0.108158
0.02	4.05142	325.146	-39.1721	-0.271097	0	-0.424185	-0.00458937	-0.368319	0.0443734	-2.04045	329.598	41.2378	-0.240685	0	-0.842203	-0.00533024	0.861005	0.107725
0.03	4.21941	325.647	-39.1728	-0.27139	0	-0.424377	-0.00438434	-0.338376	0.040704	-2.12874	330.252	41.3466	-0.240574	0	-0.842246	-0.00550993	0.854806	0.107019
0.04	4.4101	326.155	-39.1788	-0.271722	0	-0.424576	-0.00414373	-0.306455	0.0368124	-2.22599	330.933	41.4629	-0.240453	0	-0.842284	-0.00569235	0.84627	0.10603
0.05	4.62208	326.651	-39.1893	-0.272091	0	-0.424785	-0.00386166	-0.27291	0.0327419	-2.33136	331.622	41.5816	-0.240324	0	-0.842316	-0.00587382	0.835514	0.104764
0.06	4.85386	327.112	-39.2022	-0.272497	0	-0.425002	-0.00353384	-0.238153	0.028541	-2.44321	332.291	41.6966	-0.240188	0	-0.842342	-0.00604959	0.822781	0.103244
0.07	5.10427	327.515	-39.2138	-0.272938	0	-0.425228	-0.0031576	-0.202607	0.0242584	-2.5585	332.914	41.801	-0.240049	0	-0.842362	-0.00621164	0.808264	0.101486
0.08	5.37247	327.836	-39.2199	-0.273411	0	-0.425464	-0.00273235	-0.166732	0.0199466	-2.67256	333.463	41.8882	-0.239912	0	-0.842375	-0.00634879	0.792156	0.0995073
0.09	5.65734	328.053	-39.2152	-0.273916	0	-0.425708	-0.00225712	-0.130884	0.0156457	-2.77878	333.909	41.9521	-0.239783	0	-0.84238	-0.00644654	0.774642	0.0973255
0.1	5.95725	328.141	-39.1945	-0.274453	0	-0.425963	-0.00172947	-0.0952635	0.0113787	-2.8686	334.229	41.9881	-0.239667	0	-0.842375	-0.00648711	0.755834	0.0949527
0.11	6.27002	328.073	-39.1522	-0.275017	0	-0.426227	-0.0011453	-0.0599266	0.00715164	-2.93164	334.4	41.9927	-0.239572	0	-0.842357	-0.00645057	0.735789	0.0923977
0.12	6.59246	327.821	-39.0828	-0.275609	0	-0.426502	-0.000496635	-0.024696	0.00294426	-2.95669	334.402	41.9643	-0.239504	0	-0.842324	-0.00631654	0.714403	0.0896508
0.13	6.91973	327.353	-38.9808	-0.276224	0	-0.426784	0.000230109	0.0108858	-0.00129627	-2.93304	334.217	41.9018	-0.23947	0	-0.842273	-0.00606762	0.691398	0.0866827
0.14	7.2442	326.63	-38.8399	-0.276856	0	-0.427073	0.00105366	0.0475079	-0.00564922	-2.85177	333.825	41.8046	-0.239475	0	-0.842202	-0.0056921	0.66631	0.0834415
0.15	7.55453	325.609	-38.6528	-0.277498	0	-0.42737	0.0019951	0.0859909	-0.0102079	-2.70672	333.204	41.6719	-0.239521	0	-0.842109	-0.00518832	0.638696	0.0798781
0.16	7.83558	324.241	-38.4108	-0.278143	0	-0.427671	0.00307351	0.127184	-0.0150667	-2.49555	332.326	41.5021	-0.239608	0	-0.841991	-0.00456766	0.608264	0.0759622
0.17	8.06906	322.478	-38.1041	-0.278777	0	-0.427978	0.00430315	0.171974	-0.0203205	-2.22041	331.158	41.2925	-0.23973	0	-0.841851	-0.00385413	0.574815	0.0716745
0.18	8.23522	320.277	-37.7236	-0.27939	0	-0.428289	0.00568828	0.221224	-0.0260567	-1.88863	329.658	41.0391	-0.239884	0	-0.841685	-0.00308277	0.538093	0.0669872
0.19	8.31595	317.608	-37.2621	-0.279969	0	-0.4286	0.00721579	0.27559	-0.0323325	-1.51299	327.781	40.7367	-0.240056	0	-0.841496	-0.0022982	0.497891	0.061878
0.2	8.29735	314.455	-36.7161	-0.280504	0	-0.428914	0.00884989	0.335395	-0.0391612	-1.11165	325.48	40.3794	-0.240235	0	-0.841283	-0.00155113	0.454155	0.056343
0.21	8.17187	310.822	-36.087	-0.280985	0	-0.42923	0.0105306	0.400536	-0.0465031	-0.70843	322.708	39.962	-0.240403	0	-0.841049	-0.000893602	0.407058	0.0504074
0.22	7.93943	306.738	-35.3828	-0.281411	0	-0.429547	0.0121828	0.47068	-0.0542937	-0.332856	319.422	39.4809	-0.240541	0	-0.840794	-0.000372017	0.357003	0.0441258
0.23	7.60693	302.256	-34.6181	-0.281781	0	-0.429868	0.0137252	0.545362	-0.0624616	-0.0188854	315.592	38.9352	-0.240627	0	-0.84052	-1.82224e-05	0.304513	0.0375684
0.24	7.18711	297.45	-33.8139	-0.282097	0	-0.430194	0.0150784	0.624043	-0.0709408	0.197786	311.201	38.3289	-0.240634	0	-0.840231	0.000158938	0.250077	0.0308006
0.25	6.69726	292.413	-32.9956	-0.282367	0	-0.430527	0.0161697	0.705994	-0.0796638	0.282815	306.261	37.6704	-0.240536	0	-0.839932	0.000179136	0.193987	0.0238605
0.26	6.15786	287.252	-32.1911	-0.282592	0	-0.430864	0.016941	0.79026	-0.0885611	0.207507	300.812	36.973	-0.240311	0	-0.839627	9.41845e-05	0.136534	0.0167815
0.27	5.59238	282.082	-31.4287	-0.282783	0	-0.431208	0.0173584	0.875564	-0.0975528	-0.0462648	294.924	36.2536	-0.239938	0	-0.839322	-1.22543e-05	0.0781176	0.0096026
0.28	5.02505	277.022	-30.7352	-0.282942	0	-0.431556	0.0174183	0.960239	-0.106537	-0.483347	288.694	35.5308	-0.239401	0	-0.839021	-3.25549e-05	0.0194444	0.00239311
0.29	4.47639	272.188	-30.1338	-0.283074	0	-0.431907	0.0171432	1.0424	-0.115403	-1.09636	282.23	34.823	-0.23869	0	-0.838731	0.000149794	-0.0385604	-0.00475779
0.3	3.96018	267.697	-29.6446	-0.283181	0	-0.432256	0.016568	1.11995	-0.124023	-1.86799	275.65	34.1463	-0.237801	0	-0.838459	0.000642851	-0.094862	-0.0117511
0.31	3.48467	263.66	-29.2843	-0.283265	0	-0.432596	0.015738	1.19078	-0.132258	-2.77433	269.081	33.515	-0.236732	0	-0.83821	0.00152988	-0.148382	-0.0184816
0.32	3.05582	260.183	-29.0648	-0.283326	0	-0.432921	0.0147153	1.25291	-0.139962	-3.78717	262.663	32.9431	-0.235497	0	-0.837986	0.00285515	-0.198022	-0.0248359
0.33	2.68114	257.359	-28.9926	-0.28337	0	-0.433223	0.0135914	1.30462	-0.146971	-4.87413	256.552	32.4446	-0.234112	0	-0.837791	0.00461025	-0.242662	-0.0306881
0.34	2.37314	255.261	-29.0681	-0.283406	0	-0.433498	0.0124996	1.34449	-0.153105	-5.99634	250.912	32.0327	-0.232611	0	-0.837623	0.00672059	-0.281218	-0.0359017
0.35	2.14958	253.934	-29.2862	-0.283441	0	-0.433739	0.0116106	1.37159	-0.158185	-7.10542	245.898	31.7183	-0.231036	0	-0.837483	0.00903142	-0.312551	-0.0403158
0.36	2.03039	253.391	-29.6372	-0.283484	0	-0.433949	0.0111028	1.38562	-0.162065	-8.14259	241.629	31.508	-0.229439	0	-0.837372	0.0113052	-0.335479	-0.0437458
0.37	2.03243	253.617	-30.1087	-0.28354	0	-0.434128	0.0111153	1.38703	-0.164664	-9.04463	238.173	31.404	-0.227871	0	-0.837288	0.0132498	-0.348907	-0.0460047
0.38	2.1635	254.575	-30.6886	-0.283605	0	-0.434275	0.0117015	1.37689	-0.165982	-9.75679	235.542	31.4043	-0.226376	0	-0.837236	0.014581	-0.352006	-0.0469322
0.39	2.42039	256.211	-31.3656	-0.283671	0	-0.434392	0.0128177	1.35682	-0.166104	-10.2456	233.704	31.5042	-0.22498	0	-0.837214	0.0150987	-0.344405	-0.0464271
0.4	2.79093	258.462	-32.1286	-0.283727	0	-0.434482	0.014349	1.32883	-0.165183	-10.5034	232.597	31.6975	-0.223693	0	-0.837228	0.0147274	-0.326137	-0.0444449
0.41	3.2585	261.257	-32.9676	-0.283757	0	-0.434546	0.0161512	1.29496	-0.163409	-10.5436	232.133	31.9764	-0.222508	0	-0.837279	0.0135133	-0.297516	-0.0409829
0.42	3.80588	264.538	-33.8743	-0.28375	0	-0.434585	0.0180848	1.25703	-0.160964	-10.3927	232.211	32.3315	-0.221406	0	-0.83737	0.0115969	-0.259118	-0.0360779
0.43	4.41706	268.257	-34.8415	-0.283695	0	-0.434604	0.0200297	1.21645	-0.157993	-10.0847	232.724	32.7532	-0.220361	0	-0.837504	0.00917176	-0.211655	-0.029788
0.44	5.07689	272.381	-35.8607	-0.283584	0	-0.434602	0.0218849	1.17415	-0.154584	-9.657	233.581	33.2334	-0.219344	0	-0.837683	0.00644443	-0.155876	-0.0221777
0.45	5.76997	276.88	-36.9212	-0.283413	0	-0.434582	0.0235592	1.13052	-0.150752	-9.14675	234.71	33.7673	-0.218328	0	-0.83791	0.0036103	-0.0926418	-0.0133282
0.46	6.48112	281.718	-38.0099	-0.28318	0	-0.434545	0.0249707	1.08541	-0.146446	-8.58761	236.056	34.3529	-0.217296	0	-0.838184	0.000837242	-0.0230141	-0.00334921
0.47	7.19597	286.849	-39.1121	-0.28289	0	-0.434494	0.0260456	1.03824	-0.141565	-8.00764	237.586	34.9904	-0.216235	0	-0.838507	-0.00174339	0.0517263	0.00761797
0.48	7.8988	292.221	-40.2141	-0.282546	0	-0.434433	0.0267105	0.988171	-0.135987	-7.42915	239.287	35.6811	-0.21514	0	-0.838875	-0.00404089	0.130154	0.0194078
0.49	8.56949	297.778	-41.3054	-0.282153	0	-0.434364	0.0268862	0.934259	-0.129593	-6.8698	241.172	36.4263	-0.214017	0	-0.839283	-0.00600306	0.210744	0.0318305
